<?xml version="1.0" encoding="UTF-8"?>
<svg id="Calque_2" data-name="Calque 2" xmlns="http://www.w3.org/2000/svg" viewBox="0 0 531.93 548.04">
  <defs>
    <style>
      .cls-1 {
        fill: #fff;
      }

      .cls-2 {
        opacity: .6;
      }

      .cls-3 {
        opacity: .15;
      }

      .cls-4 {
        opacity: .45;
      }

      .cls-5 {
        fill: #ff395a;
      }

      .cls-6 {
        fill: #2fdd54;
      }

      .cls-7 {
        fill: #000072;
      }

      .cls-8 {
        fill: #b76e51;
      }

      .cls-9 {
        fill: #ffa5d5;
      }
    </style>
  </defs>
  <g id="Layer_1" data-name="Layer 1">
    <circle class="cls-9" cx="265.96" cy="265.96" r="265.96"/>
    <g>
      <path class="cls-5" d="m317.36,537.76c-21.2,5.02-43.38,2.9-63.47-5.57-8.31-3.53-17.82-7.97-27.43-13.27-3.99-2.21-8.58-3.02-13.08-2.3-10.84,1.7-21.3,2.62-30.32,3.1-21.77,1.1-43.34-4.48-61.55-16.44-41.35-27.14-68.65-70.79-82.38-118.74-7.22-25.23-10.69-51.65-10.46-77.46.35-48.31,13.64-94.55,39.31-126.94,71.71-90.59,145.07-66.43,171.72-48.85,20.39,13.47,33.15,20.02,39.37,22.87,2.98,1.37,6.21,1.93,9.48,1.67,1.85-.16,4.23-.38,7.21-.76,7.99-1.04,20.27-3.12,37.6-7.28,21.86-5.22,66.69-5.59,103.99,33.02,15.65,16.17,29.95,39.18,40.71,71.55,33.28,100.01-39.81,256.87-160.7,285.42Z"/>
      <g class="cls-3">
        <path class="cls-7" d="m306.67,516.93c-19.63,4.67-40.16,2.7-58.74-5.16-7.69-3.25-16.53-7.36-25.4-12.28-3.7-2.05-7.95-2.8-12.13-2.14-10.02,1.6-19.73,2.44-28.07,2.87-20.15,1.04-40.11-4.12-56.97-15.22-31.77-20.87-54.58-52.24-68.68-87.72,50.48,34.18,127.09,64.55,222.2,33.81,116.36-37.62,143.2-187.63,148.7-233.21,10.62,13.88,20.22,31.79,27.86,54.82,30.81,92.57-36.84,237.82-148.77,264.23Z"/>
      </g>
      <g class="cls-4">
        <path class="cls-1" d="m69.58,337.88c-10.78-67,21.93-149.53,85.48-179.55,24.18-11.31,47.05,17.35,31.16,38.34-9.03,11.99-19.97,22.14-29.47,33.67-29,32.58-51.48,70.4-72.65,109.25-3.04,6.71-13.21,5.55-14.52-1.72h0Z"/>
      </g>
      <g class="cls-4">
        <path class="cls-1" d="m295.16,157.26c-9.21,7.97-29.57,3.85-64.36-11.42-7.1-3.13-13.74-5.53-19.81-7.39-27.71-8.46-57.44-4.93-82.63,9.39C51.57,191.47,29.65,303.59,28.68,307.07c.35-48.31,13.64-94.55,39.31-126.94,71.71-90.59,145.07-66.43,171.72-48.85,20.39,13.47,33.15,20.02,39.37,22.87,2.98,1.37,6.21,1.93,9.48,1.67,1.85-.16,4.23-.38,7.21-.76.22.91.06,1.66-.6,2.21Z"/>
      </g>
      <path class="cls-7" d="m294.24,548.04c-14.65,0-29.3-2.98-43.28-8.89-9.98-4.22-19.45-8.8-28.16-13.61h0c-2.5-1.38-5.42-1.89-8.23-1.45-9.82,1.55-20.29,2.62-31.12,3.17-23.75,1.25-46.63-4.89-66.1-17.66-48.04-31.51-81.8-88.02-92.64-155.06-10.93-67.6,3.38-136.25,37.34-179.14,86.17-108.82,172.3-56.74,181.84-50.44,20.26,13.38,32.72,19.72,38.35,22.31,1.8.83,3.7,1.16,5.7,1,6.16-.51,20.03-2.21,43.66-7.86,11.12-2.67,109.86-22.18,153.66,109.52,17.27,51.92,7.27,121.32-26.1,181.12-33.09,59.3-84.13,100.88-140.04,114.08-8.21,1.94-16.55,2.91-24.88,2.91Zm-77.7-39.25c4.72,0,9.43,1.2,13.59,3.5h0c8.24,4.56,17.23,8.91,26.72,12.91,18.95,8.01,39.28,9.8,58.78,5.2,51.78-12.23,99.27-51.13,130.3-106.73,31.36-56.21,40.92-120.95,24.96-168.96-39.54-118.89-126.04-101.9-135.77-99.58-24.61,5.89-39.34,7.68-45.93,8.23-4.56.37-9.14-.43-13.28-2.34-6.02-2.77-19.26-9.5-40.36-23.43-8.35-5.51-83.84-51.03-161.62,47.21-31.41,39.67-44.54,103.78-34.27,167.32,10.16,62.85,41.51,115.63,86,144.81,16.76,10.99,36.49,16.25,57.02,15.2,10.3-.53,20.23-1.54,29.53-3.01,1.44-.23,2.89-.34,4.34-.34Z"/>
    </g>
    <g>
      <path class="cls-6" d="m291.01,114.1c56.17-10.26,65.21,27.38,115.02,14.47,34.55-8.95,42.85-48.5,44.68-71.87.82-10.32.38-17.49.38-17.49-24.06,21.98-38.11,15.16-93.03,15.72-44.75.44-61.1,39.49-65.6,53.92-1.04,3.25-1.44,5.26-1.44,5.26Z"/>
      <g class="cls-3">
        <path class="cls-7" d="m291.01,114.1c56.17-10.26,65.21,27.38,115.02,14.47,34.55-8.95,42.85-48.5,44.68-71.87-.89-1.93-1.44-3.08-1.44-3.08,0,0-14,62.65-76.19,46.85-59.66-15.15-64.88-3.14-80.64,8.38-1.04,3.25-1.44,5.26-1.44,5.26Z"/>
      </g>
      <g class="cls-2">
        <path class="cls-1" d="m424.87,66.01c-10.77,1.67-22.08,2.36-33.07,1.84l-11.44-.6c-1.38-.11-2.59.94-2.66,2.33-.06,1.09.6,2.05,1.56,2.43,11.35,4.48,23.98,5.92,36.04,3.77,3.25-.89,15.81-2.92,13.09-8.32-.72-1.28-2.18-1.77-3.52-1.45h0Z"/>
      </g>
      <path class="cls-7" d="m286.84,108.89c33.22-24.04,76.72-31.27,116.16-21.8.8.16.69,1.45-.17,1.41-19.42.37-38.52,2.39-57.13,7.46-17.85,4.91-36.11,13.08-50.91,23.63-7.05,4.94-14.73-5.33-7.94-10.69h0Z"/>
      <path class="cls-7" d="m386.12,137.96c-15.21,0-26.64-4.8-37.8-9.48-15.42-6.47-29.99-12.59-56.11-7.82-2.17.41-4.42-.31-5.97-1.9-1.55-1.59-2.21-3.84-1.76-6.01.13-.64,13.92-63.89,73.51-64.49,12.38-.11,22.51.12,31.46.33,30.24.73,40.42.97,57.13-14.31,1.9-1.74,4.62-2.22,7-1.26,2.38.96,4,3.21,4.16,5.77.21,3.35,4.48,82.1-50.03,96.23-8.04,2.09-15.15,2.94-21.58,2.94Zm-76.47-32.32c18.73,0,31.88,5.52,43.83,10.54,15.1,6.34,28.14,11.82,50.87,5.93,32.09-8.32,38.7-48.05,39.92-69.19-15.71,9.96-30.43,9.6-55.14,9.01-8.84-.21-18.85-.45-31.01-.33-36.47.36-52.02,29.11-57.74,44.48,3.24-.3,6.32-.43,9.26-.43Z"/>
    </g>
    <g>
      <path class="cls-8" d="m283.87,146.54s-9.2-69.04-27.67-115.75c0,0,6.65-13.46,17.21-10.27,3.72,1.12,6.5,4.22,7.72,7.91,4.88,14.77,19.67,65.97,10.08,118.19l-7.34-.09Z"/>
      <g class="cls-2">
        <path class="cls-1" d="m266.49,54.03s6.65-13.46,17.21-10.27c.75.23,1.46.56,2.13.93-1.82-7.16-3.54-12.75-4.7-16.26-1.22-3.69-4-6.79-7.72-7.91-10.56-3.19-17.21,10.27-17.21,10.27,18.47,46.71,27.67,115.75,27.67,115.75l6.61.08c-4.27-24.27-12.26-62.92-23.99-92.58Z"/>
      </g>
      <path class="cls-7" d="m291.21,153.29s-.05,0-.08,0l-7.34-.09c-3.31-.04-6.09-2.5-6.53-5.79-.09-.68-9.32-68.79-27.26-114.17-.69-1.75-.61-3.72.22-5.41,3.4-6.88,12.51-17.51,25.12-13.7,5.63,1.7,10.17,6.26,12.13,12.2,4.92,14.89,20.19,67.67,10.31,121.48-.58,3.17-3.34,5.47-6.56,5.47Zm-27.6-121.82c11.76,30.97,19.56,69.8,23.6,93.3,2.97-43.06-8.39-82.04-12.42-94.25-.59-1.79-1.86-3.18-3.32-3.62-3.19-.97-6.18,2.21-7.87,4.57Z"/>
    </g>
  </g>
</svg>