<?xml version="1.0" encoding="UTF-8"?>
<svg id="Calque_2" data-name="Calque 2" xmlns="http://www.w3.org/2000/svg" viewBox="0 0 560.91 570.67">
  <defs>
    <style>
      .cls-1 {
        fill: #fff;
      }

      .cls-2 {
        fill: #ffb339;
      }

      .cls-3 {
        opacity: .6;
      }

      .cls-4 {
        fill: #2dd370;
      }

      .cls-5 {
        opacity: .35;
      }

      .cls-6 {
        fill: #52d2ff;
      }

      .cls-7 {
        fill: #000072;
      }

      .cls-8 {
        fill: #1d995b;
      }

      .cls-9 {
        fill: #ffdb43;
      }
    </style>
  </defs>
  <g id="Layer_1" data-name="Layer 1">
    <g>
      <circle class="cls-6" cx="301" cy="310.76" r="259.91"/>
      <g>
        <path class="cls-9" d="m257.46,506.3c-176.53,12.48-237.58-93.28-247.83-114.1-1.17-2.37-1.77-4.98-1.66-7.67.25-8.87,2.9-29.3,21.7-34.15,3.39-.88,7-.53,10.25.81,15.84,6.47,77.06,27.75,157.76,5.87,18.28-4.95,37.54-12.09,57.48-22.13,103.96-52.25,133.48-155.04,140.09-185.4,3.22-14.74,14.46-26.79,29.23-29.94.92-.21,1.87-.39,2.86-.53,0,0,15.2-49.91,6.43-96.71-1.38-7.35,4.14-14.14,11.59-14.32,2.55-.07,5.3-.07,8.24-.04,14.03.25,31.18,2.19,41.36,9.23,19.55,13.43,7.14,31.28,7.14,31.28l-12.58,66.56s1.91.57,5.02,2.16c12.76,6.4,45.85,29.37,50.41,96.75,5.69,83.81-98.98,278.97-287.49,292.33Z"/>
        <g>
          <path class="cls-2" d="m449.02,93.64c-.07-.04-.14-.07-.23-.12.07.04.15.07.23.12Z"/>
          <path class="cls-2" d="m448.8,93.52c-.36-.18-.62-.32-.72-.37.12.06.43.22.72.37Z"/>
          <path class="cls-2" d="m449.3,93.78c-.12-.06-.18-.09-.28-.14.15.08.28.14.28.14Z"/>
          <path class="cls-2" d="m247.81,485.72c-150.58,10.64-217.15-64.76-239.8-100.07-.04-.35-.04-.74-.04-1.13.11-3.99.74-10.32,3.08-16.51,22.69,33.9,85.08,100.28,221.85,90.63,175.82-12.48,273.03-194.42,268.12-272.64-3-47.61-37.33-56.1-37.33-56.1v-.07c13.19-.64,23.79-6.89,30.86-12.62,7.11,3.57,20.57,12.3,31.85,31.04,4.42,12.19,7.67,27.08,8.91,45.14,5.69,83.81-98.98,278.97-287.49,292.33Z"/>
        </g>
        <path class="cls-4" d="m502.11,48.5l-12.58,66.56s1.91.57,5.02,2.16c-7.07,5.73-17.67,11.98-30.86,12.62-1.45.11-2.93.11-4.42.04-27.08-1.24-31.92-10.82-31.92-10.82,0,0,15.2-49.91,6.43-96.71-1.38-7.35,4.14-14.14,11.59-14.32,4.52-.11,9.76-.07,15.2.25,3.11.18,6.26.46,9.4.88,1.56.21,3.11.46,4.67.71,1.48.28,2.93.57,4.35.92,2.19.49,4.35,1.1,6.36,1.77.81.28,1.59.57,2.37.88.18.07.39.14.6.25.74.28,1.45.6,2.16.95.74.35,1.45.74,2.16,1.13.81.46,1.59.95,2.33,1.45,1.41.99,2.69,1.98,3.78,3.04.42.35.78.71,1.13,1.1.35.35.71.74,1.03,1.1.99,1.13,1.8,2.26,2.44,3.39.21.35.42.74.6,1.13.25.46.42.92.64,1.34.11.28.21.6.32.88,3.57,10.15-2.79,19.3-2.79,19.3Z"/>
        <path class="cls-8" d="m502.11,48.5l-12.58,66.56s1.91.57,5.02,2.16c-7.07,5.73-17.67,11.98-30.86,12.62l16.4-93.5s-10.68-16.72-19.51-28.07c3.08.18,6.26.46,9.4.88,1.56.21,3.11.46,4.67.71,1.48.28,2.93.57,4.35.92,2.19.49,4.35,1.1,6.36,1.77.81.28,1.59.57,2.37.88.18.07.39.14.6.25.74.28,1.45.6,2.16.95.74.35,1.45.74,2.16,1.13.81.46,1.59.95,2.33,1.45,1.41.99,2.69,1.98,3.78,3.04.42.35.78.71,1.13,1.1.35.35.71.74,1.03,1.1.99,1.13,1.8,2.26,2.44,3.39.21.35.42.74.6,1.13.25.46.42.92.64,1.34.11.28.21.6.32.88,3.57,10.15-2.79,19.3-2.79,19.3Z"/>
        <g class="cls-3">
          <path class="cls-1" d="m445.55,128.28c-23.47,2.16-30.36,23.33-30.36,23.33-84.42,285.38-321.76,213.01-321.76,213.01,86.78,9.15,141.81-19.66,161.74-29.7,103.96-52.25,133.48-155.04,140.09-185.4,3.22-14.74,14.46-26.79,29.23-29.94.92-.21,1.87-.39,2.86-.53,0,0,15.2-49.91,6.43-96.71-1.38-7.35,4.14-14.14,11.59-14.32,2.55-.07,5.3-.07,8.24-.04,9.93,52.42-8.06,120.29-8.06,120.29Z"/>
        </g>
        <g class="cls-5">
          <path class="cls-1" d="m346.26,305.82c31.7-36.02,61.25-74.39,74.96-120.85.95-3.16,1.96-6.37,3.16-9.6.43-1.3,2.5-1.08,2.62.29,5.98,41.37-14.9,82.89-45.07,110.22-10.19,9.08-21.4,17.01-34.18,22.17-1.31.55-2.53-1.22-1.49-2.23h0Z"/>
        </g>
        <g>
          <path class="cls-2" d="m28.03,367.01c57.31,47.44,139.97,52.67,211.38,45.82,86.93-9.76,153.35-77.5,198.53-148.03,0,0,8.71-13.61,8.71-13.61,2.25-3.36,6.06-10.48,9.06-13.36-3.09,3.26-5.75,9.98-8.17,13.88,0,0-7.84,14.17-7.84,14.17-37.67,65.32-92.78,125.5-167.12,147.91-42.1,11.72-86.76,12.15-130.06,7.92-32.61-3.69-65.14-12.41-94.2-28.15-9.76-5.45-18.94-11.16-27.7-19.32-2.09-1.94-2.2-5.21-.26-7.3,2.08-2.24,5.61-2.15,7.66.08h0Z"/>
          <path class="cls-7" d="m439.39,9.78s-8.77,19.93,11.39,27.81c20.16,7.87,19.53,1.26,32.76,6.93,7.64,3.28,11.34,15.67,18.58,3.99,11.34-18.28-.32-35.85-37.8-40.55-37.48-4.7-24.94,1.82-24.94,1.82Z"/>
          <path class="cls-7" d="m488.99,30.93l-21.06,74.7,9.1-76.88c1.04-8.72,14.08-6.34,11.96,2.19h0Z"/>
          <path class="cls-7" d="m8.34,394.46s18.31,6.02,29.85-3.98c12.91-11.19,24.37-30.21-.25-38.17-24.61-7.96-33.26,33.04-29.6,42.14Z"/>
        </g>
        <path class="cls-7" d="m229.09,515.26c-159.23,0-216.33-98.72-226.58-119.55-1.77-3.59-2.61-7.43-2.49-11.41.64-22.1,10.73-37.27,27.69-41.63h0c5.03-1.29,10.31-.9,15.27,1.14,16.24,6.67,102.6,37.29,208.64-15.99,100.74-50.62,129.49-150.56,135.9-179.99,3.82-17.53,16.86-31.31,33.48-35.6,3.32-13.03,11.8-52.07,4.98-88.42-1.09-5.8.41-11.76,4.12-16.34,3.71-4.58,9.22-7.28,15.11-7.42,17.18-.41,40.49,1.1,54.3,10.61,7.86,5.41,12.57,12.15,14.01,20.02,1.72,9.43-1.92,17.37-3.84,20.73l-11.15,58.88c14.9,7.57,49.6,32.62,54.37,103.14,5.76,85.09-99.67,286.96-294.85,300.78-10,.71-19.66,1.05-28.96,1.05ZM33.56,357.85c-.65,0-1.29.08-1.9.23h0c-13.12,3.37-15.5,18.16-15.75,26.68-.04,1.36.25,2.68.87,3.93,10.06,20.43,68.91,121.8,240.14,109.66,79.99-5.66,154.89-47.14,210.92-116.79,51.01-63.42,71.62-131.05,69.19-167.05-5.19-76.66-48.05-91.26-49.87-91.85-3.82-1.23-6.19-5.13-5.45-9.07l12.6-66.57c.21-1.1.64-2.14,1.28-3.05,1.75-2.64,6.68-12.09-5.12-20.2-8.04-5.53-23.96-8.33-44.9-7.81-1.67.04-2.68.98-3.13,1.53-.45.56-1.16,1.74-.85,3.39,9.04,48.14-5.97,98.37-6.61,100.49-.89,2.93-3.39,5.09-6.43,5.55-.83.12-1.63.27-2.41.43-11.4,2.42-20.47,11.79-23.1,23.86-6.79,31.16-37.27,137.02-144.3,190.81-112.2,56.39-204.47,23.63-221.83,16.49-1.09-.45-2.24-.68-3.36-.68Zm-3.88-7.47h.05-.05Z"/>
      </g>
    </g>
  </g>
</svg>