<?xml version="1.0" encoding="UTF-8"?>
<svg id="Calque_2" data-name="Calque 2" xmlns="http://www.w3.org/2000/svg" viewBox="0 0 640.67 724.76">
  <defs>
    <style>
      .cls-1 {
        opacity: .7;
      }

      .cls-2 {
        fill: #fff;
      }

      .cls-3 {
        opacity: .6;
      }

      .cls-4 {
        fill: #23b55e;
      }

      .cls-5 {
        fill: #a95fff;
      }

      .cls-6 {
        fill: #8c42f4;
      }

      .cls-7 {
        opacity: .15;
      }

      .cls-8 {
        fill: #2fdd54;
      }

      .cls-9 {
        fill: #000072;
      }

      .cls-10 {
        fill: #e7c0ff;
      }
    </style>
  </defs>
  <g id="Layer_1" data-name="Layer 1">
    <g>
      <circle class="cls-10" cx="260.41" cy="418.49" r="260.41"/>
      <g>
        <g>
          <path class="cls-4" d="m387.24,352.92c3.12-8.24,9.28-42.47,9.28-42.47-25.52-46.65-63.98-78.68-63.98-78.68l-17.32,57.81-18.13-5.47c6.26-23.37,18.9-76.08,18.9-76.08-38.69,33.98-94.08,51.57-98.11,56.51-4.03,4.94-13.16,26.5-13.59,32.41-.44,5.94,11.56,29.26,10.74,44.18-.81,14.91,4.02,112.72,8.44,142.84,4.41,30.16-24.81,79.97-24.81,79.97l-11.12-2.98,11.42-93.41s3.02-108.8-.57-122.83c-3.56-14.02-17.04-50.5-17.04-50.5,8.05-21.47,18.2-38.99,23.91-48.06,2.71-4.32,4.44-6.73,4.44-6.73,70.13-21.59,109.36-65.89,109.36-65.89,5.29-37.81,5.35-75.31,5.03-92.28-.16-7.25,2.3-14.38,6.94-19.97,7.15-8.61,15.01-13.44,21.78-15.86,9.46-3.35,16.77-1.94,16.92.54.26,3.96-6.85,23.18-9.63,30.49-.66,1.82-1.05,3.68-1.09,5.6-.54,25.75-8.94,78.1-8.94,78.1,63.97,17.95,103.01-21.48,103.01-21.48l7.19,10.8c-1.51,1.83-2.99,3.57-4.49,5.26-52.05,58.19-108.82,32.55-108.82,32.55l-1.17,7.03-2.95,17.59c55.68,45.99,75.47,95.95,75.47,95.95l-11.47,48.48-19.6-3.42Z"/>
          <g class="cls-3">
            <path class="cls-2" d="m328.93,182.56c-43.18,40.59-119.42,64.52-119.42,64.52,0,0-1.64-.34-4.26-.9,2.71-4.32,4.44-6.73,4.44-6.73,70.13-21.59,109.36-65.89,109.36-65.89,5.29-37.81,5.35-75.31,5.03-92.28-.16-7.25,2.3-14.38,6.94-19.97,7.15-8.61,15.01-13.44,21.78-15.86,1.8,1.63,2.45,3.23.63,4.33-5.79,3.56-16.16,13.17-15.34,31.47.67,15.25-2.94,72.15-4.18,90.82-.27,4.01-2.06,7.74-4.99,10.49Z"/>
          </g>
          <g class="cls-7">
            <path class="cls-9" d="m455.78,154.75c-52.05,58.19-108.82,32.55-108.82,32.55l-1.17,7.03-5.92-3.68,2.12-11.4c.75-4.02,4.93-6.38,8.76-4.93,12.99,4.94,43.06,11.13,86.1-11.82,7.98-4.26,14.18-6.69,18.94-7.76Z"/>
          </g>
          <path class="cls-9" d="m198.63,570.49c-.56,0-1.13-.07-1.69-.22l-11.12-2.98c-3.15-.84-5.19-3.87-4.8-7.11l11.39-93.1c1.16-41.74,2.08-111.15-.35-120.71-3.46-13.54-16.72-49.51-16.86-49.87-.54-1.47-.54-3.09.01-4.56,12.05-32.14,28.49-55.32,29.18-56.29.83-1.17,2.03-2.03,3.4-2.45,60.68-18.67,97.83-55,105.07-62.56,4.85-36.06,5.01-71.26,4.66-89.22-.17-8.9,2.83-17.53,8.46-24.29,15.14-18.2,34.58-22.24,43.55-19.3,3.99,1.31,6.5,4.22,6.72,7.78.1,1.72.34,5.74-10.04,33.2-.43,1.14-.66,2.29-.68,3.41-.43,21.04-5.89,58.57-8.12,73.09,56.29,13.04,90.66-20.84,91.01-21.2,1.38-1.39,3.35-2.08,5.28-1.91,1.96.19,3.72,1.25,4.81,2.89l7.17,10.77c1.59,2.39,1.44,5.54-.39,7.77-44.28,54.08-94.19,47.43-113.16,42.26l-2.26,13.43c54.13,45.82,73.68,94.07,74.5,96.14.49,1.25.59,2.61.28,3.92l-11.49,48.5c-.8,3.37-4.1,5.56-7.49,4.93l-19.59-3.44c-1.92-.34-3.59-1.51-4.55-3.2-.96-1.69-1.13-3.73-.43-5.55,2.2-5.82,6.57-28.32,8.53-39.02-17.82-31.8-41.83-56.63-53.84-68l-14.33,47.88c-.5,1.66-1.64,3.06-3.17,3.88-1.53.82-3.33,1-4.99.5l-18.14-5.47c-3.38-1.02-5.34-4.54-4.43-7.95,3.83-14.31,10.13-39.97,14.38-57.46-24.45,17.65-51.39,29.72-68.7,37.48-5.93,2.66-12.04,5.4-13.76,6.56-3.45,4.68-11.56,23.98-11.89,28.44.07,1.37,1.97,6.84,3.35,10.83,3.54,10.19,7.95,22.88,7.4,33.22-.76,14.06,3.93,111.23,8.38,141.54,4.7,32.05-24.41,82.11-25.65,84.23-1.19,2.04-3.36,3.23-5.64,3.23Zm-3.94-14.37l.71.19c6.71-12.43,24.91-48.75,21.59-71.38-4.39-29.89-9.39-127.6-8.5-144.15.42-7.77-3.69-19.59-6.69-28.22-2.83-8.15-4.3-12.57-4.04-16.08.56-7.6,10.48-30.47,15.05-36.07,2.1-2.58,6.07-4.43,18.29-9.91,20.32-9.11,54.33-24.35,80.55-47.39,2.14-1.88,5.25-2.16,7.69-.69,2.44,1.47,3.65,4.35,2.98,7.12-.12.48-10.76,44.95-17.3,70.12l5.82,1.76,15.42-51.53c.63-2.1,2.27-3.75,4.38-4.38,2.1-.63,4.38-.17,6.07,1.23,1.61,1.34,39.73,33.37,65.53,80.57.72,1.31.96,2.82.7,4.29-.51,2.85-4.27,23.57-7.4,36.12l6.35,1.11,9.57-40.39c-4.14-9.25-25.07-52.08-72.8-91.5-1.8-1.49-2.67-3.82-2.29-6.13l4.14-24.63c.34-2,1.58-3.73,3.37-4.68,1.79-.96,3.92-1.03,5.77-.19,2.21.99,54.09,23.12,102.43-32.32l-.35-.53c-13.76,10.7-50.39,32.87-103.45,17.98-3.2-.9-5.22-4.06-4.69-7.34.08-.52,8.36-52.18,8.87-77.18.05-2.62.57-5.23,1.53-7.77,4.31-11.4,7.04-19.57,8.33-24.16-5.51.34-16.39,3.6-26.28,15.48-3.62,4.35-5.55,9.92-5.44,15.68.36,18.68.18,55.66-5.07,93.32-.18,1.27-.73,2.47-1.58,3.43-1.63,1.85-40.43,45-110.13,67.09-3.84,5.72-16.03,24.76-25.51,49.26,3.05,8.34,13.27,36.57,16.41,48.86,3.7,14.5,1.06,113.38.75,124.61,0,.2-.02.41-.05.61l-10.74,87.77Z"/>
        </g>
        <g>
          <g>
            <circle class="cls-5" cx="388.88" cy="416.7" r="73.03"/>
            <path class="cls-6" d="m450.25,421.39c-10.43,38.94-50.48,62.06-89.42,51.63-15.29-4.1-28.1-12.74-37.45-24.08-5-10.14-7.68-21.49-7.52-33.19,8.81,13.23,22.25,23.46,38.8,27.9,36.26,9.72,73.51-11.82,83.21-48.04,2.94-10.99,2.97-22.09.64-32.46,2.38,2.23,4.66,4.6,6.69,7.11.05.05.09.06.05.08,7.54,15.32,9.76,33.32,5,51.07Z"/>
            <g class="cls-3">
              <path class="cls-2" d="m368.99,392.82c-11.92,7.9-20.18,20-27.01,19.06-7.01-.3-8.42-24.19,12.43-39.35,21-14.94,43.2-6,41.25.74-1.29,6.78-15.39,10.75-26.67,19.54Z"/>
            </g>
            <path class="cls-9" d="m388.87,497.1c-6.87,0-13.85-.89-20.79-2.75-42.82-11.47-68.32-55.64-56.85-98.46,5.56-20.74,18.86-38.08,37.46-48.81,18.6-10.73,40.27-13.58,61-8.03,20.74,5.56,38.08,18.86,48.81,37.46,10.74,18.59,13.59,40.26,8.03,61h0c-9.61,35.87-42.18,59.59-77.67,59.59Zm-.09-146.1c-11.38,0-22.61,2.98-32.73,8.83-15.19,8.77-26.06,22.93-30.6,39.88-9.37,34.98,11.46,71.06,46.44,80.44,34.99,9.38,71.07-11.46,80.44-46.44h0c4.54-16.95,2.21-34.64-6.56-49.84-8.77-15.19-22.93-26.06-39.88-30.6-5.66-1.52-11.4-2.27-17.1-2.27Z"/>
          </g>
          <g>
            <circle class="cls-5" cx="163.89" cy="565.81" r="55.57" transform="translate(-406.08 714.59) rotate(-88.47)"/>
            <path class="cls-6" d="m210.58,569.38c-7.94,29.63-38.41,47.22-68.03,39.28-11.63-3.12-21.38-9.69-28.49-18.32-3.8-7.72-5.84-16.35-5.72-25.25,6.7,10.06,16.93,17.85,29.52,21.22,27.58,7.39,55.93-8.99,63.31-36.55,2.24-8.36,2.26-16.8.49-24.7,1.81,1.7,3.54,3.5,5.09,5.41.04.04.07.04.04.06,5.74,11.66,7.42,25.35,3.81,38.85Z"/>
            <g class="cls-3">
              <path class="cls-2" d="m148.76,547.64c-9.07,6.01-15.35,15.22-20.55,14.5-5.33-.23-6.41-18.4,9.45-29.93,15.98-11.37,32.87-4.56,31.39.56-.98,5.16-11.71,8.18-20.29,14.87Z"/>
            </g>
            <path class="cls-9" d="m163.99,628.76c-5.47,0-10.96-.72-16.39-2.17-16.24-4.35-29.8-14.76-38.21-29.32-8.4-14.56-10.63-31.51-6.29-47.75,8.98-33.51,43.55-53.46,77.07-44.49,16.23,4.35,29.8,14.76,38.21,29.32,8.4,14.56,10.63,31.51,6.29,47.75h0c-4.35,16.23-14.76,29.8-29.32,38.21-9.69,5.6-20.46,8.46-31.36,8.46Zm-.09-111.16c-21.28,0-40.82,14.22-46.58,35.73-6.88,25.68,8.41,52.17,34.09,59.04,12.45,3.34,25.43,1.62,36.58-4.81,11.15-6.44,19.13-16.83,22.46-29.27h0c3.33-12.44,1.62-25.43-4.81-36.58-6.44-11.15-16.83-19.13-29.27-22.46-4.16-1.12-8.35-1.65-12.46-1.65Z"/>
          </g>
          <g>
            <circle class="cls-5" cx="195.7" cy="661.81" r="55.57" transform="translate(-168.1 75.34) rotate(-15.34)"/>
            <path class="cls-6" d="m242.39,665.37c-7.94,29.63-38.41,47.22-68.03,39.28-11.63-3.12-21.38-9.69-28.49-18.32-3.8-7.72-5.84-16.35-5.72-25.25,6.7,10.06,16.93,17.85,29.52,21.22,27.58,7.39,55.93-8.99,63.31-36.55,2.24-8.36,2.26-16.8.49-24.7,1.81,1.7,3.54,3.5,5.09,5.41.04.04.07.04.04.06,5.74,11.66,7.42,25.35,3.81,38.85Z"/>
            <g class="cls-3">
              <path class="cls-2" d="m180.56,643.63c-9.07,6.01-15.35,15.22-20.55,14.5-5.33-.23-6.41-18.4,9.45-29.93,15.98-11.37,32.87-4.56,31.39.56-.98,5.16-11.71,8.18-20.29,14.87Z"/>
            </g>
            <path class="cls-9" d="m195.8,724.76c-5.47,0-10.97-.72-16.39-2.17-16.23-4.35-29.8-14.76-38.21-29.32-8.4-14.56-10.63-31.51-6.29-47.75,4.35-16.24,14.76-29.8,29.32-38.21,14.55-8.4,31.51-10.64,47.75-6.29,33.51,8.98,53.47,43.55,44.49,77.07h0c-4.35,16.23-14.76,29.8-29.32,38.21-9.69,5.6-20.46,8.46-31.36,8.46Zm-.09-111.16c-21.28,0-40.81,14.22-46.58,35.74-3.33,12.44-1.62,25.43,4.81,36.58,6.44,11.15,16.83,19.13,29.27,22.46,12.43,3.33,25.43,1.63,36.58-4.81,11.15-6.44,19.13-16.84,22.46-29.27h0c6.88-25.68-8.41-52.17-34.09-59.04-4.16-1.12-8.35-1.65-12.47-1.65Zm53.66,62.6h.05-.05Z"/>
          </g>
          <g>
            <circle class="cls-5" cx="355.54" cy="533.88" r="59.6" transform="translate(-273.38 407.77) rotate(-45)"/>
            <path class="cls-6" d="m405.62,537.71c-8.52,31.78-41.19,50.65-72.97,42.13-12.47-3.34-22.93-10.4-30.56-19.65-4.08-8.28-6.27-17.54-6.14-27.09,7.19,10.79,18.16,19.15,31.66,22.77,29.59,7.93,59.99-9.64,67.91-39.21,2.4-8.97,2.43-18.02.52-26.49,1.94,1.82,3.8,3.75,5.46,5.8.04.04.07.05.04.07,6.15,12.5,7.96,27.19,4.08,41.67Z"/>
            <g class="cls-3">
              <path class="cls-2" d="m339.31,514.39c-9.73,6.45-16.47,16.32-22.04,15.56-5.72-.24-6.87-19.74,10.14-32.11,17.14-12.19,35.26-4.89,33.67.6-1.05,5.53-12.56,8.78-21.76,15.95Z"/>
            </g>
            <path class="cls-9" d="m355.52,601.38c-5.77,0-11.62-.74-17.45-2.31-17.41-4.67-31.97-15.84-40.98-31.45-9.01-15.61-11.41-33.8-6.74-51.21,9.63-35.94,46.74-57.35,82.66-47.72,35.95,9.63,57.36,46.71,47.72,82.66h0c-8.07,30.12-35.41,50.03-65.21,50.03Zm-.06-119.23c-8.96,0-17.81,2.35-25.77,6.95-11.96,6.91-20.52,18.06-24.09,31.4-3.57,13.34-1.74,27.28,5.16,39.24,6.91,11.96,18.06,20.52,31.4,24.09,27.53,7.38,55.95-9.03,63.33-36.56h0c7.38-27.54-9.02-55.95-36.56-63.33-4.45-1.19-8.97-1.78-13.46-1.78Zm57.65,67.16h.05-.05Z"/>
          </g>
          <g>
            <circle class="cls-5" cx="281.84" cy="446.14" r="77.8" transform="translate(-232.92 329.96) rotate(-45)"/>
            <path class="cls-6" d="m347.21,451.13c-11.12,41.48-53.77,66.11-95.26,55-16.28-4.36-29.93-13.57-39.9-25.65-5.33-10.8-8.18-22.89-8.01-35.36,9.39,14.09,23.7,24.99,41.33,29.72,38.62,10.35,78.31-12.59,88.65-51.18,3.14-11.71,3.17-23.53.68-34.58,2.54,2.37,4.96,4.9,7.13,7.57.06.05.09.06.05.09,8.03,16.32,10.4,35.49,5.33,54.4Z"/>
            <g class="cls-3">
              <path class="cls-2" d="m260.65,420.69c-12.7,8.41-21.49,21.3-28.78,20.31-7.46-.32-8.97-25.76,13.24-41.91,22.37-15.91,46.02-6.39,43.95.79-1.37,7.22-16.39,11.46-28.41,20.82Z"/>
            </g>
            <path class="cls-9" d="m281.82,531.3c-7.28,0-14.67-.94-22.02-2.91-45.35-12.15-72.37-58.94-60.21-104.3,12.15-45.36,58.95-72.37,104.3-60.22,21.97,5.89,40.33,19.98,51.71,39.68,11.37,19.7,14.39,42.65,8.51,64.62-10.18,38-44.68,63.13-82.28,63.13Zm.04-155.62c-31.1,0-59.64,20.78-68.06,52.22-10.05,37.52,12.29,76.22,49.81,86.27,37.51,10.05,76.22-12.29,86.27-49.81h0c4.87-18.17,2.37-37.16-7.04-53.45-9.41-16.29-24.6-27.95-42.77-32.82-6.08-1.63-12.2-2.41-18.22-2.41Z"/>
          </g>
          <g>
            <circle class="cls-5" cx="167.78" cy="446.34" r="73.03" transform="translate(-266.47 249.37) rotate(-45)"/>
            <path class="cls-6" d="m229.15,451.03c-10.43,38.94-50.48,62.06-89.42,51.63-15.29-4.1-28.1-12.74-37.45-24.08-5-10.14-7.68-21.49-7.52-33.19,8.81,13.23,22.25,23.46,38.8,27.9,36.26,9.72,73.51-11.82,83.21-48.04,2.94-10.99,2.97-22.09.64-32.46,2.38,2.23,4.66,4.6,6.69,7.11.05.05.09.06.05.08,7.54,15.32,9.76,33.32,5,51.07Z"/>
            <g class="cls-3">
              <path class="cls-2" d="m147.89,422.45c-11.92,7.9-20.18,20-27.01,19.06-7.01-.3-8.42-24.19,12.43-39.35,21-14.94,43.2-6,41.25.74-1.29,6.78-15.39,10.76-26.67,19.54Z"/>
            </g>
            <path class="cls-9" d="m167.77,526.74c-6.87,0-13.85-.89-20.79-2.75-20.74-5.56-38.08-18.86-48.81-37.46-10.74-18.6-13.59-40.26-8.03-61,5.56-20.74,18.86-38.08,37.46-48.82,18.6-10.74,40.27-13.58,61-8.03,42.82,11.47,68.32,55.64,56.85,98.46h0c-9.61,35.87-42.18,59.59-77.67,59.59Zm-.09-146.11c-11.38,0-22.61,2.99-32.73,8.83-15.19,8.77-26.06,22.93-30.6,39.88-4.54,16.95-2.21,34.64,6.56,49.84,8.77,15.19,22.93,26.06,39.88,30.6,16.93,4.53,34.64,2.21,49.84-6.56,15.19-8.77,26.06-22.93,30.6-39.88,9.37-34.98-11.46-71.06-46.44-80.44-5.66-1.52-11.4-2.27-17.11-2.27Zm70.65,84.61h.05-.05Z"/>
          </g>
          <g>
            <circle class="cls-5" cx="139.7" cy="329.02" r="73.03"/>
            <path class="cls-6" d="m201.06,333.71c-10.43,38.94-50.48,62.06-89.42,51.63-15.29-4.1-28.1-12.74-37.45-24.08-5-10.14-7.68-21.49-7.52-33.19,8.81,13.23,22.25,23.46,38.8,27.9,36.26,9.72,73.51-11.82,83.21-48.04,2.94-10.99,2.97-22.09.64-32.46,2.38,2.23,4.66,4.6,6.69,7.11.05.05.09.06.05.08,7.54,15.32,9.76,33.32,5,51.07Z"/>
            <g class="cls-3">
              <path class="cls-2" d="m119.81,305.13c-11.92,7.9-20.18,20-27.01,19.06-7.01-.3-8.42-24.19,12.43-39.35,21-14.94,43.2-6,41.25.74-1.29,6.78-15.39,10.76-26.67,19.54Z"/>
            </g>
            <path class="cls-9" d="m139.68,409.42c-6.87,0-13.85-.89-20.79-2.75-42.82-11.47-68.32-55.64-56.85-98.46,11.47-42.82,55.64-68.33,98.46-56.85,20.74,5.56,38.08,18.86,48.81,37.46,10.74,18.6,13.59,40.26,8.03,61-9.61,35.87-42.18,59.59-77.67,59.59Zm.03-146.08c-29,0-55.6,19.38-63.45,48.69-9.37,34.98,11.46,71.06,46.44,80.44,34.99,9.38,71.07-11.46,80.44-46.44h0c4.54-16.95,2.21-34.64-6.56-49.84-8.77-15.19-22.93-26.06-39.88-30.6-5.67-1.52-11.37-2.25-16.98-2.25Z"/>
          </g>
          <g>
            <circle class="cls-5" cx="264.5" cy="582.83" r="59.6" transform="translate(-334.65 357.74) rotate(-45)"/>
            <path class="cls-6" d="m314.58,586.66c-8.51,31.78-41.19,50.65-72.97,42.13-12.47-3.34-22.93-10.4-30.56-19.65-4.08-8.28-6.27-17.54-6.14-27.09,7.19,10.79,18.16,19.15,31.66,22.77,29.59,7.93,59.99-9.64,67.91-39.21,2.4-8.97,2.43-18.02.52-26.49,1.94,1.82,3.8,3.75,5.46,5.8.04.04.07.05.04.07,6.15,12.5,7.96,27.19,4.08,41.67Z"/>
            <g class="cls-3">
              <path class="cls-2" d="m248.27,563.34c-9.73,6.44-16.47,16.32-22.04,15.56-5.72-.24-6.87-19.74,10.14-32.11,17.14-12.19,35.26-4.89,33.67.6-1.05,5.53-12.56,8.78-21.76,15.95Z"/>
            </g>
            <path class="cls-9" d="m264.61,650.35c-5.86,0-11.77-.77-17.58-2.33-35.94-9.63-57.35-46.71-47.72-82.66,4.67-17.41,15.83-31.97,31.45-40.98,15.61-9.02,33.81-11.41,51.21-6.74,17.41,4.67,31.97,15.83,40.98,31.45,9.01,15.61,11.41,33.8,6.74,51.21h0c-4.67,17.41-15.83,31.97-31.45,40.98-10.4,6.01-21.94,9.07-33.63,9.07Zm-.2-119.25c-8.96,0-17.8,2.35-25.77,6.95-11.96,6.9-20.52,18.06-24.09,31.4-3.57,13.34-1.74,27.28,5.17,39.24,6.91,11.96,18.06,20.52,31.4,24.09,13.34,3.57,27.28,1.74,39.24-5.17,11.96-6.9,20.52-18.06,24.09-31.4,3.57-13.34,1.74-27.28-5.17-39.24-6.91-11.96-18.06-20.52-31.4-24.09-4.46-1.19-8.98-1.78-13.47-1.78Zm57.65,67.16h.05-.05Z"/>
          </g>
          <g>
            <circle class="cls-5" cx="287.71" cy="313.98" r="73.03" transform="translate(-137.75 295.4) rotate(-45)"/>
            <path class="cls-6" d="m346.64,331.74c-18.56,35.79-62.63,49.77-98.42,31.22-14.05-7.28-24.71-18.48-31.4-31.56-2.71-10.98-2.89-22.64-.22-34.03,5.76,14.81,16.69,27.69,31.9,35.58,33.32,17.28,74.33,4.25,91.59-29.05,5.24-10.1,7.65-20.93,7.6-31.56,1.85,2.69,3.56,5.49,5.01,8.38.04.06.07.07.03.09,4.07,16.58,2.37,34.64-6.08,50.95Z"/>
            <g class="cls-3">
              <path class="cls-2" d="m273.41,286.38c-13.34,5.15-24,15.2-30.48,12.82-6.78-1.79-3.03-25.43,20.59-35.76,23.72-10.08,43.48,3.42,40.13,9.58-2.71,6.34-17.34,7.2-30.24,13.36Z"/>
            </g>
            <path class="cls-9" d="m287.57,394.36c-12.45,0-25.07-2.9-36.87-9.01-39.35-20.4-54.77-69.02-34.37-108.37,9.88-19.06,26.6-33.14,47.07-39.63,20.46-6.49,42.24-4.62,61.3,5.26,39.35,20.4,54.77,69.02,34.37,108.37h0c-14.29,27.56-42.41,43.38-71.5,43.38Zm.21-146.09c-6.68,0-13.38,1.03-19.93,3.11-16.72,5.31-30.38,16.8-38.45,32.38-16.67,32.15-4.07,71.87,28.08,88.54,32.15,16.67,71.87,4.07,88.54-28.08h0c16.67-32.15,4.07-71.87-28.08-88.54-9.48-4.91-19.78-7.4-30.15-7.4Zm64.76,99.33h.05-.05Z"/>
          </g>
        </g>
        <g>
          <path class="cls-8" d="m594.53,165.22c-17.63,11.73-38.98,12.81-38.98,12.81,0,0,5.56,9.44-9.16,10.17-14.72.73-37.03-3.05-37.03-3.05,0,0,.81.76,2.18,2.11l.06.02c5.45,5.32,19.62,19.75,28.51,34.35,11.19,18.37,1.03,17.37-4.78,14.29,0,0,9.22,20.78,8.74,35.35-.05.8-.08,1.57-.2,2.28-1.52,11.98-11.79,9.5-11.79,9.5,0,0-5.51,9.05-23.74-5.65-18.26-14.71-22.65-21.2-22.65-21.2,0,0-2.75,11.92-17.43-8.22-8.5-11.72-11.96-19.42-13.35-23.82-.98-3.17-.93-4.62-.93-4.62,0,0-7.42,24.92-12.4,13.94,0,0-5.19,7.61-10.81,13.82-4.52,4.98-9.33,9.04-12.06,7.6-6.14-3.24-4.5-7.6-4.5-7.6,0,0-8.19,3.9-8.02-5.19.18-9.13,4.07-21.49,4.07-21.49,0,0-9.32,2.58-4.97-12.67,4.36-15.25,23.5-44.48,23.5-44.48,0,0-.63-.3-1.76-.88-9.72-4.91-55.57-28.97-43.98-39,0,0-15.83-19.88-14.53-22.71,1.33-2.82,5.82-3.01,5.82-3.01,0,0-1.87-10.72,6.54-10.64,8.41.09,24.9,9.92,24.9,9.92,0,0-1.12-6.8,4.15-5.49,5.09,1.23,13.77,12.9,14.32,13.62-.14-.85-5.27-28.36-2.88-39.9,2.47-11.73,6.51-15.59,10.25-8.43,0,0,10.62-39.26,18.99-47.11,8.33-7.85,11.39.82,11.39.82,0,0,5.07-6.93,10.93-.86,5.85,6.07,10.36,22.34,11.7,37.05,0,0,5.11-8.58,9.79-2.18,4.67,6.43-2.83,41.01-7.62,62.17,0,0,28.49-23.58,36.69-24.49,8.21-.95,6.02,6.45,6.02,6.45,0,0,29.19-10.9,43.63-9.84,14.41,1.05,14.73,7.06,8.68,13.84,0,0,29.15,1.11,49.14,12.93,1.11.67,2.15,1.32,3.18,2.04,0,0-6.1,23.79-35.41,41.19,0,0,13.47,4.56-4.19,16.28Z"/>
          <g class="cls-1">
            <path class="cls-2" d="m507.02,118.85c8.97-7.76,27.42-19.39,55.73-17.1,3.08.25,3.73,4.51.85,5.62-12.6,4.85-34.75,12.77-54.17,16.56-2.92.57-4.66-3.13-2.4-5.08Z"/>
          </g>
          <g class="cls-1">
            <path class="cls-2" d="m448.47,65.79c-1.58-7.63-2.35-21.95,8.03-37.47,1.13-1.69,3.79-.7,3.5,1.31-1.25,8.79-3.8,24.04-7.84,36.41-.61,1.86-3.29,1.67-3.69-.25Z"/>
          </g>
          <g class="cls-7">
            <path class="cls-9" d="m374.33,93.29s12.22,22.16,23.9,26.59,8.48,20.15,22.72,25.53c14.24,5.38,23.58-8,23.58-8l-11.95,25.75-38.75-20.5s-11.11-7.73-10.66-10.13c.44-2.4-2.68-17.03-2.68-17.03l-8.93-11.93,2.76-10.3Z"/>
          </g>
          <g class="cls-7">
            <path class="cls-9" d="m424.5,198.6c-4.59,10.04,3.51,9-.34,21.23-3.83,12.01-10.07,32.27,6.62,27.47-4.52,4.98-9.33,9.04-12.06,7.6-6.14-3.24-4.5-7.6-4.5-7.6,0,0-8.19,3.9-8.02-5.19.18-9.13,4.07-21.49,4.07-21.49,0,0-9.32,2.58-4.97-12.67,4.36-15.25,23.5-44.48,23.5-44.48,0,0-.63-.3-1.76-.88l89.92-22.28c-1.68.6-55.68,20.18-60.08,23.34-4.49,3.23,19.5,25.87,28.36,43.35,0,0-35.11-31.68-40.91-31-5.79.65-15.26,12.6-19.84,22.61Z"/>
          </g>
          <g class="cls-7">
            <path class="cls-9" d="m532.09,283.04s-5.51,9.05-23.74-5.65c-18.26-14.71-22.65-21.2-22.65-21.2,0,0-2.75,11.92-17.43-8.22-8.5-11.72-11.96-19.42-13.35-23.82.08-2.18.29-4.12.69-5.74,0,0,1.88-11.18,6.65-11.79,4.8-.61,10.34,20.17,18.32,26.74,7.96,6.53,5.42-4.2,14.09,1.74,8.66,5.94,15.82,46.69,47.9,38.77.44-.12.87-.21,1.31-.33-1.52,11.98-11.79,9.5-11.79,9.5Z"/>
          </g>
          <g class="cls-7">
            <path class="cls-9" d="m594.53,165.22c-17.63,11.73-38.98,12.81-38.98,12.81,0,0,5.56,9.44-9.16,10.17-14.72.73-37.03-3.05-37.03-3.05,0,0,.81.76,2.18,2.11-1.96-.78-10.84-4.77-14.21-14.51-1.18-3.41,1.59-6.92,5.18-6.57,10.67,1.02,31.05,2.84,33.68,2.1,3.59-1-6.35-9.01,2.85-8.48,9.23.54,40.16,3.25,37.93-6.39-2.25-9.67-4.72-10.03,10.36-15.03,12.97-4.31,34.78-18.13,43.62-32.66,1.11.67,2.15,1.32,3.18,2.04,0,0-6.1,23.79-35.41,41.19,0,0,13.47,4.56-4.19,16.28Z"/>
          </g>
          <g>
            <path class="cls-9" d="m427.97,160.31l125.91-30.06c.37-.1.58.52.17.62,0,0-124.41,35.76-124.41,35.76-4.17,1.18-5.94-5.27-1.66-6.32h0Z"/>
            <path class="cls-9" d="m506.58,141.91c12.9,5.06,26.92,8.63,40.53,10.71-14.04-1.09-27.91-3.95-41.45-8.23-1.71-.53-.73-3.21.93-2.48h0Z"/>
            <path class="cls-9" d="m460.67,154.23c4.31-11.01,11.24-22.58,19.6-29.95-7.49,8.99-13.28,19.71-16.46,30.87-.52,2.22-3.91,1.24-3.14-.92h0Z"/>
            <path class="cls-9" d="m430.7,161.64c19.07-27.31,28.4-60.62,30.44-93.67,0-.2.33-.21.33,0,.69,33.68-9.06,67.8-28.18,95.66-1.25,1.77-4-.29-2.6-1.99h0Z"/>
            <path class="cls-9" d="m452.96,115.52c7.46-7.95,13.67-17.32,18.39-27.2-4.04,10.4-9.48,20.17-16.52,28.92-1.09,1.36-3.14-.51-1.87-1.72h0Z"/>
            <path class="cls-9" d="m441.2,145.06c.74-10.55-2.64-22.08-6.03-31.49,4.92,9.85,8.27,20.46,8.57,31.64,0,.7-.55,1.28-1.25,1.29-.77.02-1.38-.68-1.28-1.44h0Z"/>
            <path class="cls-9" d="m434.6,162.04c29.72,16.07,53.96,41.98,68.7,72.28.09.18-.19.34-.29.15-16.89-28.49-40.38-53.87-69.82-69.48-1.99-.85-.55-3.99,1.4-2.95h0Z"/>
            <path class="cls-9" d="m474.92,193.51c10.26,4.58,19.55,10.79,27.9,18.2-4.4-3.36-9.03-6.39-13.85-9.04-4.82-2.65-9.88-5.02-14.98-6.8-1.62-.55-.63-3.07.93-2.36h0Z"/>
            <path class="cls-9" d="m452.29,173.68c4.64,9.88,7.13,21.77,6.62,32.07-.84-10.64-3.53-21.56-8.81-30.78-.99-1.45,1.41-2.88,2.19-1.29h0Z"/>
          </g>
          <path class="cls-9" d="m525.86,292.35c-6.25,0-13.51-3.3-21.64-9.86-9.44-7.61-15.36-13.16-18.95-16.87-.45.16-.92.3-1.41.4-8.14,1.66-15.42-6.73-20.86-14.21-4.2-5.77-7.27-10.68-9.52-14.81-3.77,5.45-7.02,5.68-8.44,5.78-.49.04-1.17.03-1.97-.1-17.24,23.36-24.8,19.37-27.41,18-3.32-1.75-5.38-3.91-6.61-6.1-1.44-.19-2.94-.66-4.38-1.58-2.35-1.52-5.13-4.66-5.01-11.02.11-5.56,1.4-12.03,2.55-16.75-.43-.31-.84-.67-1.24-1.07-5.53-5.58-2.86-14.94-1.98-18.01,3.35-11.73,14.41-30.42,20.4-40.08-16.53-8.57-43-24.2-44.67-37.12-.22-1.69-.08-3.32.39-4.85-15.36-19.84-13.93-22.95-12.53-25.96,1.2-2.59,3.17-4.19,5.17-5.19.3-2.58,1.16-5.53,3.23-7.97,1.68-1.98,4.86-4.46,9.94-4.29,6.26.06,14.94,3.83,21.12,6.97.1-.11.21-.21.32-.31,1.37-1.26,4.38-3.22,9.09-2.07,1.15.28,2.33.8,3.51,1.49-.83-8.12-1.21-16.92,0-22.73,1.43-6.88,4.2-16.15,11.6-17.16.34-.05.72-.08,1.13-.08,3.88-12.92,11.29-35.04,18.41-41.73,5.59-5.26,10.38-5.49,13.42-4.75,1.28.31,2.42.84,3.44,1.5,1.22-.52,2.59-.9,4.12-1.01,2.68-.18,6.66.44,10.54,4.47,6.07,6.28,10.01,18.83,12.1,30.53.15-.01.29-.02.44-.03,2.16-.07,6.18.43,9.54,5.06,4.21,5.79,3.65,18.97-2.65,49.64,9.39-6.99,20-13.98,25.69-14.63,6.01-.69,9.35,1.61,11.08,3.67.19.22.36.44.52.67,10.03-3.32,28-8.59,39.27-7.73,3.58.26,14.46,1.06,17.67,8.99.61,1.49,1,3.41.68,5.7,11.75,1.48,31.53,5.34,45.88,15.22,2.26,1.56,3.3,4.35,2.62,7.01-.25.99-6.05,22.66-31.29,40.58.44.96.75,2,.9,3.14,1.17,8.9-8.68,15.44-11.91,17.59-12.66,8.41-26.89,11.76-35.2,13.07-.19,1.23-.58,2.47-1.23,3.66-2.44,4.5-7.49,6.97-15.03,7.34-6.01.3-13.11-.1-19.56-.7,6.13,6.79,13.2,15.41,18.55,24.19,2.68,4.39,9.79,16.06,3.33,22.91-1.11,1.17-2.39,1.96-3.76,2.45,2.66,7.84,5.63,18.78,5.33,27.9-.29,8.58-3.79,13-6.68,15.21-3.26,2.48-6.85,3.09-9.49,3.12-1.51,1.04-3.43,1.91-5.72,2.31-.92.16-1.87.24-2.84.24Zm.66-12.71s0,0,0,.01c0,0,0,0,0-.01Zm0,0s0,0,0,0c0,0,0,0,0,0Zm0,0s0,0,0,0t0,0Zm-35.44-27.1s4.54,6.25,21.34,19.79c9.14,7.36,13.58,7.26,14.45,6.79,1.55-2.06,4.18-3.02,6.74-2.41.21.04,1.64.16,2.4-.45.85-.68,1.42-2.63,1.5-5.21.43-12.87-8.09-32.3-8.18-32.49-1.13-2.55-.52-5.54,1.53-7.44,1.69-1.56,4.03-2.1,6.18-1.52-.59-1.22-1.4-2.72-2.52-4.56-10.58-17.35-29.41-34.9-29.6-35.07-2.12-1.97-2.7-5.09-1.42-7.68,1.28-2.59,4.1-4.02,6.96-3.56.22.03,21.76,3.62,35.6,2.96,1.92-.1,3.08-.36,3.73-.57-.97-1.96-.94-4.37.15-6.26,1.11-1.92,3.07-3.24,5.29-3.35.19,0,19.84-1.18,35.68-11.71,3.28-2.18,4.85-3.75,5.59-4.67h0c-2.34-.89-4.04-3.07-4.25-5.57-.21-2.5.95-4.93,3.11-6.21,19.35-11.49,27.66-25.76,30.78-32.82-18.22-10.03-44.31-11.18-44.59-11.19-2.53-.1-4.78-1.65-5.76-3.98-.99-2.33-.55-5.02,1.14-6.91.73-.82,1.2-1.46,1.51-1.95-1-.35-2.79-.77-5.8-1-10.6-.75-33.11,6.54-40.86,9.42-2.33.86-4.94.34-6.75-1.35-1.23-1.15-1.95-2.71-2.06-4.34-5.53,2.27-20.32,12.99-32,22.67-2.16,1.79-5.21,2-7.59.54s-3.57-4.28-2.96-7.01c7.52-33.4,9.27-48.04,9-54.15-1.58,1.69-3.97,2.46-6.29,1.91-2.73-.65-4.77-2.94-5.02-5.74-1.46-15.81-6.18-29.24-9.91-33.1-.14-.15-.26-.26-.36-.34-.27.2-.55.49-.56.51-1.43,1.96-3.81,2.98-6.23,2.62-2.11-.31-3.91-1.62-4.87-3.48-.3.22-.67.53-1.11.94-4.32,4.06-12.27,26.04-17.16,44.07-.71,2.6-2.94,4.5-5.62,4.79-1.23.14-2.47-.09-3.55-.62-.31,1.03-.64,2.3-.97,3.88-1.78,8.56,1.5,29.9,2.91,37.4.57,3-1.02,5.99-3.82,7.21-2.81,1.21-6.07.33-7.88-2.13-2.38-3.24-5.3-6.57-7.6-8.77-.49.85-1.18,1.59-2.02,2.15-2.09,1.38-4.79,1.49-6.94.21-6.2-3.7-16.95-8.91-21.55-9.01-.2.8-.21,2.25-.08,2.96.33,1.86-.16,3.76-1.34,5.23-.7.87-1.6,1.54-2.61,1.95,2.59,4.1,7.2,10.43,11.34,15.62,2,2.52,1.85,6.08-.24,8.42,2.49,5.68,22.25,19.14,43.74,29.65,1.68.83,2.93,2.33,3.43,4.14.5,1.81.19,3.75-.84,5.31-.19.29-18.66,28.57-22.69,42.68-.57,2-.8,3.4-.87,4.34,1.59.11,3.11.8,4.25,1.98,1.67,1.72,2.26,4.21,1.54,6.5-.03.11-3.24,10.46-3.71,18.38,2.09-.43,4.31.14,5.89,1.64,1.47,1.4,2.22,3.35,2.06,5.3,3.51-2.6,10.09-10.24,15.42-18.09,1.33-1.96,3.6-3.02,5.97-2.84.63.06,1.25.2,1.83.43,1.27-2.58,2.72-6.27,3.75-9.72.94-3.16,4.1-5.11,7.35-4.58,3.25.55,5.59,3.43,5.45,6.72,0,0,0,0,0,0,.03,0,.82,7.5,13.06,24.32,3.32,4.56,5.61,6.85,7,7.99.96-1.2,2.33-2.05,3.91-2.35,2.56-.49,5.16.61,6.62,2.76h0Zm-11.78,2.17s0,.02,0,.03c0-.01,0-.02,0-.03Zm-58.96-5.11s0,0,0,.01c0,0,0,0,0-.01Zm-9.61-33.94h.05-.05Z"/>
        </g>
      </g>
    </g>
  </g>
</svg>