<?xml version="1.0" encoding="UTF-8"?>
<svg id="Calque_2" data-name="Calque 2" xmlns="http://www.w3.org/2000/svg" viewBox="0 0 544.55 560.98">
  <defs>
    <style>
      .cls-1 {
        fill: #fff;
      }

      .cls-2 {
        fill: #67ecb4;
      }

      .cls-3 {
        opacity: .15;
      }

      .cls-4 {
        opacity: .45;
      }

      .cls-5 {
        fill: #8af253;
      }

      .cls-6 {
        fill: #000072;
      }

      .cls-7 {
        fill: #c47d47;
      }

      .cls-8 {
        fill: #d7ffa9;
      }
    </style>
  </defs>
  <g id="Layer_1" data-name="Layer 1">
    <g>
      <circle class="cls-2" cx="272.27" cy="272.27" r="272.27"/>
      <g>
        <circle class="cls-7" cx="260.54" cy="324.61" r="228.35"/>
        <path class="cls-5" d="m225.49,524.81c-12.85-2.27-25.59-5.81-37.89-10.54-50.66-19.48-90.7-57.53-112.74-107.12-22.05-49.6-23.46-104.81-3.98-155.47,34.82-90.56,129.33-144.08,224.7-127.26,12.85,2.27,25.59,5.81,37.89,10.54,104.58,40.22,156.94,158.02,116.72,262.59-34.83,90.56-129.33,144.08-224.7,127.26Z"/>
        <path class="cls-8" d="m373.35,341l-65.23-17.15c-.94-.25-1.58-1.06-1.51-1.9.4-5.03.56-8.55.62-10.29.03-.74.6-1.36,1.43-1.54l77.33-16.48c2.23-.47,1.73-3.33-.6-3.42l-75.32-2.94c-1.11-.04-2.01-.83-2.03-1.79-.07-4.62-.16-11.9-.19-14.59,0-.65.41-1.22,1.08-1.49l70.07-28.48c2.06-.84.94-3.6-1.34-3.29l-71.13,9.49c-1.77.24-3.09-1.53-2.07-2.78l28.96-34.97c1.32-1.59-1.12-3.64-2.92-2.46l-39.26,25.67c-1.32.86-3.3-.05-3.28-1.52l.74-54.73c.03-2.01-3.27-2.59-3.94-.69l-18.03,51.68c-.48,1.39-2.65,1.57-3.6.31l-28.12-37.55c-1.29-1.72-4.28-.63-3.59,1.32l15.25,42.76c.54,1.52-1.3,2.73-2.89,1.9l-63.59-33.24c-2.04-1.07-4.04,1.14-2.39,2.64l56.1,50.73c.53.48.73,1.16.5,1.77-.95,2.52-3.52,9.33-5.17,13.64-.34.89-1.46,1.32-2.52.99l-71.79-23c-2.22-.71-3.66,1.8-1.73,3.01l67.03,41.93c.72.45,1.05,1.23.82,1.93-.54,1.65-1.6,5.02-2.94,9.89-.22.81-1.1,1.36-2.07,1.27l-67.17-6.2c-2.23-.21-2.96,2.39-.93,3.27l63.02,27.2c.76.33,1.23.99,1.19,1.7-.11,1.82-.27,5.55-.15,9.56.02.66-.39,1.26-1.07,1.54l-59.22,23.99c-2.05.83-.96,3.58,1.32,3.3l59.31-7.23c1.17-.14,2.27.61,2.38,1.63.32,2.95,1.1,8.76,2.67,13.24.22.63.04,1.27-.49,1.7l-50.2,40.77c-1.66,1.34.36,3.74,2.4,2.85l53.4-23.21c.87-.38,1.96-.14,2.57.57,1.94,2.27,6.15,7.16,9.06,10.3.32.34.46.74.45,1.16l-2.24,59.08c-.08,2.05,3.32,2.65,3.95.7l18.1-56.29c.13-.4.4-.73.82-.94,3.81-1.96,9.44-5.11,12.04-6.58.81-.46,1.92-.31,2.61.34l42.24,40.07c1.61,1.53,4.32-.03,3.23-1.86l-33.23-55.48c-.35-.59-.3-1.25.12-1.76,3.01-3.68,5.73-8.87,7.04-11.53.45-.93,1.75-1.25,2.8-.72l53.26,27.08c2.04,1.04,4.01-1.17,2.37-2.65l-47.45-42.79c-.54-.49-.72-1.2-.48-1.81,1.48-3.73,2.61-7.29,3.13-9.04.2-.68.88-1.15,1.7-1.2l68.53-4c2.21-.13,2.41-2.82.25-3.39Z"/>
        <g>
          <path class="cls-6" d="m308.21,192.18c-5.41.19-6.18,7.38-6.18,11.42,0,1.41,1.42,2.34,2.75,1.86,13.45-4.78,8.5-13.46,3.43-13.28Z"/>
          <path class="cls-6" d="m340.57,222.24c-5.21-1.46-8.13,5.16-9.36,9.01-.43,1.34.65,2.66,2.06,2.61,14.27-.48,12.18-10.25,7.3-11.62Z"/>
          <path class="cls-6" d="m357.77,268.45c-3.99-3.66-9.58.93-12.42,3.8-.99,1-.62,2.66.66,3.26,12.94,6.03,15.5-3.63,11.76-7.06Z"/>
          <path class="cls-6" d="m364.73,315.91c-3.43-4.19-9.62-.45-12.83,1.99-1.12.85-1,2.55.18,3.32,11.95,7.81,15.86-1.38,12.65-5.31Z"/>
          <path class="cls-6" d="m349.55,367.64c-1.38-5.23-8.56-4.4-12.5-3.51-1.38.31-1.96,1.9-1.21,3.1,7.63,12.07,15,5.32,13.71.42Z"/>
          <path class="cls-6" d="m320.37,411.42c.8-5.35-6.13-7.42-10.1-8.16-1.39-.26-2.56.97-2.33,2.37,2.25,14.1,11.69,10.81,12.43,5.79Z"/>
          <path class="cls-6" d="m276.37,447.88c3.37-4.23-1.59-9.49-4.65-12.12-1.07-.92-2.7-.44-3.21.88-5.12,13.33,4.7,15.21,7.86,11.24Z"/>
          <path class="cls-6" d="m260.56,183.78c5.01,2.03,3.28,9.05,1.9,12.85-.48,1.33-2.14,1.71-3.22.81-11.01-9.09-3.38-15.56,1.32-13.65Z"/>
          <path class="cls-6" d="m219.88,200.95c5.39.41,5.87,7.63,5.71,11.66-.06,1.41-1.52,2.27-2.83,1.75-13.25-5.33-7.94-13.8-2.88-13.41Z"/>
          <path class="cls-6" d="m187.91,238.5c5-2.07,8.69,4.15,10.37,7.82.59,1.28-.32,2.72-1.73,2.84-14.22,1.24-13.33-8.71-8.64-10.66Z"/>
          <path class="cls-6" d="m165.14,280.72c4.65-2.76,9.19,2.87,11.38,6.26.77,1.19.07,2.73-1.31,3.06-13.9,3.26-14.43-6.73-10.07-9.32Z"/>
          <path class="cls-6" d="m161.7,334.52c3.08-4.44,9.55-1.2,12.95.97,1.19.76,1.19,2.46.08,3.32-11.3,8.73-15.92-.13-13.03-4.3Z"/>
          <path class="cls-6" d="m174.16,385.64c1.08-5.3,8.3-4.87,12.28-4.21,1.39.23,2.07,1.79,1.38,3.02-6.94,12.48-14.68,6.16-13.67,1.19Z"/>
          <path class="cls-6" d="m203.03,434.95c-1.72-5.13,4.74-8.38,8.52-9.8,1.32-.5,2.69.51,2.71,1.92.25,14.28-9.62,12.69-11.23,7.88Z"/>
        </g>
        <g class="cls-3">
          <path class="cls-6" d="m459.05,371.18c-45.26,117.69-177.41,176.43-295.1,131.17-54.28-20.87-95.97-60.21-120.79-108.09-9.04-28.16-12.69-58.14-10.18-88.33,23.75,39.49,60.33,71.71,106.73,89.55,110.68,42.56,234.89-12.69,277.43-123.32,12.74-33.12,16.67-67.38,13.06-100.38,13.27,14.74,24.46,31.12,33.44,48.63,15.15,47.6,14.74,100.51-4.58,150.76Z"/>
        </g>
        <g class="cls-4">
          <path class="cls-1" d="m190.55,215.15c-32.73,19.25-57.31,48.76-74.51,46.46-17.82-.74-14.56-59.05,43.07-96,57.97-36.41,112.12-14.53,105.2,1.91-5.24,16.54-42.41,26.21-73.76,47.63Z"/>
        </g>
        <path class="cls-6" d="m260.62,560.98c-28.65,0-57.34-5.28-84.88-15.87C54.17,498.35-6.71,361.4,40.05,239.82,86.8,118.24,223.75,57.36,345.33,104.12c121.57,46.76,182.44,183.71,135.7,305.29h0c-22.65,58.89-66.88,105.44-124.54,131.08-30.7,13.65-63.25,20.49-95.87,20.49Zm.17-456.83c-88.62,0-172.36,53.81-206.02,141.34-43.63,113.46,13.18,241.27,126.64,284.9,54.96,21.13,114.86,19.6,168.68-4.31,53.81-23.92,95.09-67.36,116.22-122.33h0c43.63-113.46-13.18-241.27-126.64-284.9-25.93-9.97-52.62-14.7-78.88-14.7Z"/>
      </g>
    </g>
  </g>
</svg>