<?xml version="1.0" encoding="UTF-8"?>
<svg id="Calque_2" data-name="Calque 2" xmlns="http://www.w3.org/2000/svg" viewBox="0 0 532.74 535.89">
  <defs>
    <style>
      .cls-1 {
        fill: #fff;
      }

      .cls-2 {
        fill: #ff8327;
      }

      .cls-3 {
        opacity: .6;
      }

      .cls-4 {
        fill: #ffd553;
      }

      .cls-5 {
        opacity: .2;
      }

      .cls-6 {
        opacity: .15;
      }

      .cls-7 {
        fill: #2fdd54;
      }

      .cls-8 {
        fill: #000072;
      }

      .cls-9 {
        fill: #b76e51;
      }
    </style>
  </defs>
  <g id="Layer_1" data-name="Layer 1">
    <g>
      <circle class="cls-4" cx="255.75" cy="280.14" r="255.75"/>
      <g>
        <g>
          <path class="cls-7" d="m526.2,144.27s-102.59,9.84-197.54-90.34l-.02-.04c-1.12-1.2-2.27-2.42-3.38-3.62,0,0,8.2-3.67,22.43-6.09,22.15-3.72,58.88-4.38,101.78,16.8,53.13,26.22,69.77,60.24,74.71,75.4.47,1.43.85,2.73,1.16,3.8.68,2.61.87,4.09.87,4.09Z"/>
          <g class="cls-6">
            <path class="cls-8" d="m526.2,144.27s-102.59,9.84-197.54-90.34l-.02-.04c-1.12-1.2-2.27-2.42-3.38-3.62,0,0,8.2-3.67,22.43-6.09,0,0,73.64,72.37,177.65,96,.68,2.61.87,4.09.87,4.09Z"/>
          </g>
          <g class="cls-3">
            <path class="cls-1" d="m524.18,136.37c-66.17-95.84-183.99-75.2-183.99-75.2-4.97-2.72-8.74-5.12-11.53-7.25l-.02-.04c-1.12-1.2-2.27-2.42-3.38-3.62,0,0,53.73-24.05,124.21,10.71,53.13,26.22,69.77,60.24,74.71,75.4Z"/>
          </g>
          <path class="cls-8" d="m325.63,43.72c27.24,3.44,52.44,13.11,77.41,23.68,23.97,10.58,49.47,23.48,69.97,38.09,0,0-18.09-8.18-18.09-8.18-29.84-13.09-60.83-25.78-92.4-33.72-12.3-2.92-25.65-6.02-37.99-6.83-8.72-.69-7.69-13.81,1.11-13.03h0Z"/>
          <path class="cls-8" d="m517.61,151.12c-28.21,0-115.53-7.81-197.17-96.44-1.43-1.55-2.02-3.69-1.6-5.75.42-2.06,1.82-3.79,3.74-4.65,2.3-1.04,57.37-24.88,129.76,10.82,72.77,35.88,80.07,86.2,80.34,88.33.23,1.76-.27,3.53-1.37,4.92-1.1,1.38-2.72,2.26-4.49,2.43-.7.07-3.91.34-9.21.34Zm-180.52-97.9c75.57,77.27,155.8,84.49,180.69,84.73-4.83-14.11-20.9-46.31-71.22-71.12-50.15-24.74-91.75-18.36-109.47-13.61Z"/>
        </g>
        <g>
          <path class="cls-9" d="m304.01,89.01s7.98-37.72,2.41-67.61l22.85-14.87s6.47,47.92-25.26,82.47Z"/>
          <path class="cls-8" d="m304.01,95.55c-1.02,0-2.04-.24-2.99-.73-2.62-1.35-4.01-4.28-3.41-7.17.08-.36,7.64-36.84,2.38-65.06-.49-2.6.64-5.24,2.86-6.68l22.85-14.87c1.88-1.23,4.26-1.4,6.29-.46,2.04.93,3.46,2.85,3.75,5.07.28,2.08,6.49,51.38-26.92,87.77-1.27,1.38-3.03,2.11-4.82,2.11Zm9.55-70.99c1.78,12.36,1.61,25.48.77,36.73,7.26-16.39,8.82-32.73,8.93-43.04l-9.7,6.31Z"/>
        </g>
        <g>
          <circle class="cls-2" cx="255.75" cy="280.14" r="205.14" transform="translate(-123.18 262.89) rotate(-45)"/>
          <g class="cls-6">
            <path class="cls-8" d="m428.43,340.19c-21.76,75.91-83.56,129.52-155.91,144.46-24.01,1.99-48.77-.27-73.31-7.31-67.2-19.26-116.89-69.94-137.79-131.48,22.54,23.88,51.57,42.23,85.42,51.94,100.45,28.8,205.24-29.29,234.04-129.75,13.69-47.74,7.72-96.46-13.09-137.53,56.9,50.8,83.07,131.44,60.64,209.67Z"/>
          </g>
          <g class="cls-3">
            <path class="cls-1" d="m63.87,244.53c31.22-108.91,144.82-171.89,253.73-140.66,68.97,19.77,119.48,72.6,139.35,136.34-14.54-72.92-68.27-135.36-144.67-157.26-108.91-31.22-222.51,31.76-253.73,140.66-11.45,39.94-10.19,80.49,1.32,117.39-6.19-31.03-5.32-63.95,4-96.47Z"/>
          </g>
          <g class="cls-5">
            <path class="cls-1" d="m278.08,123.38c-57.98-16.84-124.15,26.32-148.71,57.08-12.35,14.21-5.3,28.14,9.46,25,47.74-10.02,94.83-36.49,130.66-52.75,15.94-7.53,22.54-25.08,8.58-29.33Z"/>
          </g>
          <path class="cls-8" d="m256.06,492.74c-19.67,0-39.45-2.76-58.87-8.33-54.56-15.64-99.77-51.6-127.29-101.24-27.52-49.64-34.06-107.03-18.42-161.59,15.64-54.56,51.59-99.77,101.24-127.29,49.64-27.52,107.04-34.06,161.59-18.42,112.64,32.29,178,150.2,145.71,262.83-15.64,54.56-51.59,99.77-101.24,127.29-31.97,17.72-67.15,26.75-102.72,26.75Zm-.6-410.47c-33.11,0-65.85,8.4-95.61,24.9-46.21,25.62-79.67,67.69-94.23,118.47-14.56,50.79-8.47,104.2,17.14,150.4,25.62,46.21,67.69,79.67,118.47,94.23,50.79,14.57,104.2,8.47,150.41-17.14s79.67-67.69,94.23-118.47h0c30.06-104.84-30.78-214.58-135.62-244.63-18.08-5.18-36.49-7.75-54.79-7.75Z"/>
        </g>
      </g>
    </g>
  </g>
</svg>