<?xml version="1.0" encoding="UTF-8"?>
<svg id="Calque_2" data-name="Calque 2" xmlns="http://www.w3.org/2000/svg" viewBox="0 0 520.83 534.47">
  <defs>
    <style>
      .cls-1 {
        fill: #fff;
      }

      .cls-2 {
        opacity: .6;
      }

      .cls-3 {
        opacity: .2;
      }

      .cls-4 {
        opacity: .15;
      }

      .cls-5 {
        opacity: .45;
      }

      .cls-6 {
        fill: #ff395a;
      }

      .cls-7 {
        fill: #fda8f3;
      }

      .cls-8 {
        fill: #ffc639;
      }

      .cls-9 {
        fill: #2fdd54;
      }

      .cls-10 {
        fill: #000072;
      }

      .cls-11 {
        opacity: .25;
      }
    </style>
  </defs>
  <g id="Layer_1" data-name="Layer 1">
    <g>
      <path class="cls-7" d="m520.83,276.36c-5.85,342.32-515.03,342.26-520.83-.01,5.85-342.3,515.03-342.25,520.83.01Z"/>
      <g>
        <g>
          <path class="cls-9" d="m464.88,198.22c-9.5,8.76-25.71,15.87-53.91,7.79,0,0-24.84-25.92-53.53-44.67,0,0,16.81-4.87,40.74-3.98,13.21.32,89.58,9.75,66.71,40.86Z"/>
          <g class="cls-3">
            <path class="cls-10" d="m465.69,195.19c-5.48,12.53-27.4,18.56-54.73,10.83,0,0-16.13-16.85-37.45-33.19,7.31-1.21,19.58-2.32,31.65-1.64,10.56,25.92,50.15,32.22,60.52,24Z"/>
          </g>
          <g class="cls-2">
            <path class="cls-1" d="m461.25,174.26c-27.5-18.55-86.2-19.76-103.81-12.92,2.46,1.61,4.88,3.28,7.27,4.98,15.24-3.94,110.83,4.09,90.54,38.53,13.64-5.14,20.28-21.98,6.01-30.59Z"/>
          </g>
          <path class="cls-10" d="m433.62,216.89c-35.97.9-32.46-18.68-80.21-49.38-2.41-1.57-3.68-4.4-3.25-7.25,3.11-11.02,56.85-20.66,113.63,7.02,29.56,20.76,2.07,50.99-30.17,49.61Zm-18.78-17.43c18.56,5.01,33.2,3.22,43.56-5.32,20.14-26.04-82.62-32.36-82.31-28.62,18.96,14.31,34.13,29.26,38.75,33.95Z"/>
        </g>
        <g>
          <path class="cls-9" d="m230.79,127.4c-34.22,1.9-68.7,11.92-68.7,11.92-12.25-3.21-20.68-6.73-29.26-13.73h-.03c-15.09-11.38-21.85-37.02,1.62-38.91,39.26-3.03,95.56,35.75,96.36,40.72Z"/>
          <g class="cls-3">
            <path class="cls-10" d="m212.91,129.05c-27.4,3.46-50.82,10.28-50.82,10.28-11.36-2.63-22.22-7.84-29.26-13.73,1.67.35,48.96,9.19,36.86-20.18,19.24,6.78,34.06,16.54,43.22,23.63Z"/>
          </g>
          <g class="cls-2">
            <path class="cls-1" d="m130.34,118.76c-6.52-44.24,87.55-1.14,96.44,8.92,1.34-.1,2.67-.21,4.01-.28,0,0-26.98-28.05-70.62-37.61-8.02-1.78-16.62-2.9-25.74-3.11-23.46,1.9-16.72,27.52-1.62,38.9h.03s.53.44.73.58c-1.41-2.52-2.46-5.02-3.22-7.41Z"/>
          </g>
          <path class="cls-10" d="m162.09,146.68c-36.35-8.18-59.88-33.57-46.05-57.56,4.54-6.34,11.93-10.03,19.66-9.74,60.21,1.86,98.77,41.26,100.38,42.94,4.36,4.26,1.21,12.31-4.9,12.44-34.98,1.92-66.37,11.92-69.08,11.92Zm-27.12-52.6c-24.56,6.45,8.73,35.56,27.04,37.63,6.35-1.74,26.93-7.1,50.49-10.01-15.05-11.01-42.67-26.67-77.52-27.62Z"/>
        </g>
        <g>
          <path class="cls-9" d="m352.91,162.06c.54.13-31.33-21.33-50.71-25.37,0,0,22.78-69.11,97.55-80.19,9.76-1.41,18.42,4.16,21.82,12.41,3.1,34.84-17.78,85.17-68.66,93.14Z"/>
          <g class="cls-3">
            <path class="cls-10" d="m400.91,106.34c-10.2,21.4-27.89,41.04-58.39,44.95,0,0-16.16-11.34-33.44-19.22,5.95-16.38,13.88-31.32,13.88-31.32-2.03,32.57,53.33,30.94,77.95,5.59Z"/>
          </g>
          <g class="cls-2">
            <path class="cls-1" d="m307.52,138.18c11.55-21.08,38.38-56.79,90.34-64.49,11.13-1.61,20.92,5.88,22.92,16.12,1.58-6.97,3.8-14.35.78-20.9-3.41-8.26-12.07-13.83-21.82-12.41-74.76,11.08-97.55,80.19-97.55,80.19,1.74.4,3.55.9,5.33,1.5Z"/>
          </g>
          <path class="cls-10" d="m352.91,169.42c-6.3-.25-27.44-19.68-52.39-25.55-4.11-.87-6.72-5.51-5.32-9.47.99-3,25.11-73.57,103.46-85.17,8.95-1.33,17.68,1.64,23.96,8.11,24.42,27.78-16.84,110.33-69.72,112.08Zm-40.87-37.47c17.45,6.09,36.05,18,42.64,22.42,40.21-6.7,55.29-44.49,60.84-75.38.75-4.2-.51-8.36-3.46-11.4-2.94-3.04-7.05-4.44-11.25-3.8-56.2,8.32-80.98,51-88.78,68.16Z"/>
        </g>
        <g>
          <path class="cls-9" d="m290.95,133.67c-21.51-6.51-56.6-3.39-56.6-3.39-35.12-24.62-32.15-74.12-19.63-105.73,4.74-13.15,20.9-17.76,31.82-9.11,47.11,32.24,49.55,106.64,44.42,118.23Z"/>
          <g class="cls-3">
            <path class="cls-10" d="m279.69,131.23c-20.66-3.13-45.34-.95-45.34-.95-14.57-11.08-22.39-24.72-25.96-38.91,0,0,55.51,29.33,61.69-25.58,11.8,27.47,10.86,53.72,9.61,65.44Z"/>
          </g>
          <g class="cls-2">
            <path class="cls-1" d="m219.71,110.9c-9.54-54.15,13.82-118.72,61.41-51.66-9.18-20.78-46.1-72.86-66.42-34.69-10.1,25.8-15.37,68.54,7.46,94.06-.95-2.55-1.81-5.12-2.46-7.71Z"/>
          </g>
          <path class="cls-10" d="m290.94,141.04c-24.55-7.53-55-1.19-61.06-4.9-44.1-28.02-38.16-120.33-3.56-131.41,8.68-2.47,17.72-.66,24.81,4.96,61.63,50.63,54.13,130.8,39.82,131.35Zm-37.18-18.86c9.45,0,20.85.53,31.03,2.46,1.82-18.76,1.7-68.12-42.81-103.42-6.63-5.59-17.64-2.42-20.33,5.81-10.64,29.53-16.47,69.8,15,95.7,3.48-.23,9.7-.56,17.11-.56Z"/>
        </g>
        <g>
          <path class="cls-9" d="m330.72,7.71c10.28,2.52,15.13,14.53,10.38,23.94-7.66,13.22-29.67,94.82-34.98,110.64l-12.5,3.89-8.88-9.62c3.4-16.78,25-97.69,25.03-113.3h0c.59-10.53,10.8-18.51,20.96-15.54Z"/>
          <g class="cls-3">
            <path class="cls-10" d="m301.3,67.09c.94,20.85,6.64,34.02,24.05,10.67l-16.82,62.76-17.6-6.84s.5-44.22,10.36-66.6Z"/>
          </g>
          <g class="cls-2">
            <path class="cls-1" d="m308.82,32.65c8.11-10.3,26.54-5.35,28.41,7.61,21.95-35.3-29.79-49.13-28.41-7.61Z"/>
          </g>
          <path class="cls-10" d="m293.62,153.54c-4.89.8-11.15-9.47-14.29-11.99-1.66-1.8-2.32-4.31-1.75-6.7,3.29-15.73,24.81-97.56,24.84-112.05.98-25.11,37.04-31.9,46.14-8.05,6.09,14.1-5.6,26.54-8.63,39.86,0,0-26.75,89.78-26.75,89.78-.7,2.35-2.52,4.2-4.87,4.92-1.38.35-13.45,4.48-14.69,4.22Zm12.5-11.25h.05-.05Zm-13.32-7.84l3.07,3.33,4.32-1.34,25.63-86.02c1.15-11.01,19.68-30.9,1.87-35.84-15.55-.93-9.59,22.75-14.08,32.57,0,0-20.81,87.31-20.81,87.31Z"/>
        </g>
        <g>
          <path class="cls-6" d="m191.79,526.21C25.22,405.43.85,69.91,296.57,135.21c289.06,91.43,99.3,370-104.78,391Z"/>
          <g>
            <path class="cls-8" d="m275.21,275.44c-10.82,5.18-3.63-21.32,2.05-17.84,2.42.65,4.21,1.96,1.66,11.48-.71,2.65-2.2,4.81-3.71,6.36Z"/>
            <path class="cls-8" d="m290.68,401.72c-10.82,5.18-3.63-21.32,2.05-17.84,2.42.65,4.21,1.96,1.66,11.48-.71,2.65-2.2,4.81-3.71,6.36Z"/>
            <path class="cls-8" d="m163.68,422.49c-9.48,6.78-7.27-19.84-.49-17.95,4.79-1.42,4.6,13.43.49,17.95Z"/>
            <path class="cls-8" d="m239.88,180.64c-10.82,5.18-3.63-21.32,2.05-17.84,2.42.65,4.21,1.96,1.66,11.48-.71,2.65-2.2,4.81-3.7,6.36Z"/>
            <path class="cls-8" d="m168.54,275.58c-2.31-2.41-.52-14.38,3.74-13.83,3.85-.22.2,12.62-3.74,13.83Z"/>
            <path class="cls-8" d="m197.77,350.99c-2.31-2.41-.52-14.38,3.74-13.83,3.85-.22.2,12.62-3.74,13.83Z"/>
            <path class="cls-8" d="m102.56,308.15c-2.8-1.88-3.58-15.3,1.64-14.18,2.63-.34,1.88,12.49-1.64,14.18Z"/>
            <path class="cls-8" d="m336.64,320.62c-2.31-2.41-.52-14.38,3.74-13.83,3.85-.22.2,12.62-3.74,13.83Z"/>
            <path class="cls-8" d="m369.66,393.97c-1.84-2.75.45-13.26,4.86-13.46,4.3.01-.83,12.7-4.86,13.46Z"/>
            <path class="cls-8" d="m237.32,478.31c-1.84-2.75.44-13.26,4.86-13.46,4.91,1.84-1.95,12.99-4.86,13.46Z"/>
            <path class="cls-8" d="m391.4,268.41c-2.31-2.41-.52-14.38,3.74-13.83,3.85-.22.2,12.62-3.74,13.83Z"/>
            <path class="cls-8" d="m147.91,199.74c-2.31-2.41-.52-14.38,3.74-13.83,3.85-.22.2,12.62-3.74,13.83Z"/>
            <path class="cls-8" d="m328.78,204.29c-2.31-2.41-.52-14.38,3.74-13.83,3.85-.22.2,12.61-3.74,13.83Z"/>
          </g>
          <g class="cls-4">
            <path class="cls-10" d="m181.12,520.95c-17.28-11.67-40.16-39.87-60.98-75.88,54.52,59.31,378.79-156.32,191.02-302.18,245.99,115.93,32.92,351.45-130.04,378.06Z"/>
          </g>
          <g class="cls-5">
            <path class="cls-1" d="m95.57,216.69c102.09-124.08,281.54-70.35,344.3,41.36C333.93,26.72-44.65,114.94,95.86,396.75c-23.92-63.67-32.9-133.72-.29-180.06Z"/>
          </g>
          <g class="cls-11">
            <path class="cls-1" d="m250.29,172.81c-64.51-10.56-110.53,25-131.91,58.5-6.85,10.55,6.56,24.75,15.46,17.39,36.23-30,83.79-46.94,119.02-52.73,11.19-1.89,9.63-21.03-2.57-23.16Z"/>
          </g>
          <path class="cls-10" d="m199.9,534.47c-3.74,0-7.09-.38-10.01-1.16-31.74-8.57-84.06-83.81-111.56-160.95C-8.48,149.83,205.29,95.26,298.7,128.17c272.47,90.81,148.5,350.47-98.8,406.31Zm34.21-399.51c-253.42,2.93-153.87,305.76-40.42,384.14,63.97,3.17,253.46-110.76,245.92-225.5-23.5-137.09-149.14-156.68-205.5-158.63Z"/>
        </g>
      </g>
    </g>
  </g>
</svg>